<?xml version="1.0" encoding="UTF-8" standalone="no"?>
<svg
   xmlns:dc="http://purl.org/dc/elements/1.1/"
   xmlns:cc="http://creativecommons.org/ns#"
   xmlns:rdf="http://www.w3.org/1999/02/22-rdf-syntax-ns#"
   xmlns:svg="http://www.w3.org/2000/svg"
   xmlns="http://www.w3.org/2000/svg"
   xmlns:sodipodi="http://sodipodi.sourceforge.net/DTD/sodipodi-0.dtd"
   xmlns:inkscape="http://www.inkscape.org/namespaces/inkscape"
   version="1.1"
   id="Layer_1"
   x="0px"
   y="0px"
   width="100px"
   height="100px"
   viewBox="0 0 100 100"
   enable-background="new 0 0 100 100"
   xml:space="preserve"
   inkscape:version="0.48.4 r9939"
   sodipodi:docname="icon_47959.svg"><metadata
     id="metadata27"><rdf:RDF><cc:Work
         rdf:about=""><dc:format>image/svg+xml</dc:format><dc:type
           rdf:resource="http://purl.org/dc/dcmitype/StillImage" /><dc:title></dc:title></cc:Work></rdf:RDF></metadata><defs
     id="defs25" /><sodipodi:namedview
     pagecolor="#ffffff"
     bordercolor="#666666"
     borderopacity="1"
     objecttolerance="10"
     gridtolerance="10"
     guidetolerance="10"
     inkscape:pageopacity="0"
     inkscape:pageshadow="2"
     inkscape:window-width="640"
     inkscape:window-height="480"
     id="namedview23"
     showgrid="false"
     inkscape:zoom="2.36"
     inkscape:cx="50"
     inkscape:cy="50"
     inkscape:window-x="0"
     inkscape:window-y="27"
     inkscape:window-maximized="0"
     inkscape:current-layer="Layer_1" /><path
     fill="#000000"
     d="M44.375,43.438c-0.518,0-0.938,0.419-0.938,0.938c0,2.586-2.102,4.688-4.688,4.688s-4.688-2.102-4.688-4.688  c0-0.519-0.419-0.938-0.938-0.938s-0.938,0.419-0.938,0.938c0,3.618,2.944,6.562,6.562,6.562s6.562-2.944,6.562-6.562  C45.312,43.856,44.893,43.438,44.375,43.438z"
     id="path3" /><path
     fill="#000000"
     d="M31.25,37.812H27.5c-0.518,0-0.938,0.419-0.938,0.938s0.419,0.938,0.938,0.938h3.75  c0.518,0,0.938-0.419,0.938-0.938S31.768,37.812,31.25,37.812z"
     id="path5" /><path
     fill="#000000"
     d="M50,37.812h-3.75c-0.518,0-0.938,0.419-0.938,0.938s0.419,0.938,0.938,0.938H50  c0.518,0,0.938-0.419,0.938-0.938S50.518,37.812,50,37.812z"
     id="path7" /><path
     fill="#000000"
     d="M38.75,19.062c-10.856,0-19.688,8.831-19.688,19.688s8.831,19.688,19.688,19.688s19.688-8.831,19.688-19.688  S49.606,19.062,38.75,19.062z M38.75,56.562c-9.822,0-17.812-7.99-17.812-17.812s7.991-17.812,17.812-17.812  s17.812,7.99,17.812,17.812S48.572,56.562,38.75,56.562z"
     id="path9" /><path
     fill="#000000"
     d="M84.688,79.062c0-1.503-0.586-2.917-1.648-3.979L65.804,57.848c-1.174-1.174-2.825-1.674-4.431-1.551  l-3.731-3.731c2.843-3.88,4.546-8.646,4.546-13.815c0-12.924-10.514-23.438-23.438-23.438S15.312,25.826,15.312,38.75  S25.826,62.188,38.75,62.188c5.169,0,9.936-1.703,13.815-4.547l3.686,3.687c-0.015,0.166-0.049,0.329-0.049,0.5  c0,1.501,0.584,2.913,1.646,3.977l17.236,17.235c1.062,1.062,2.474,1.648,3.977,1.648c1.503,0,2.915-0.586,3.979-1.648  C84.102,81.978,84.688,80.564,84.688,79.062z M17.188,38.75c0-11.889,9.673-21.562,21.562-21.562s21.562,9.674,21.562,21.562  S50.639,60.312,38.75,60.312S17.188,50.639,17.188,38.75z M54.045,56.469c0.866-0.748,1.675-1.558,2.424-2.424l2.816,2.816  c-0.52,0.254-1.014,0.567-1.436,0.988c-0.419,0.42-0.741,0.906-1.005,1.419L54.045,56.469z M81.714,81.714  c-1.417,1.417-3.887,1.417-5.305,0L59.174,64.479c-0.707-0.709-1.097-1.65-1.097-2.651c0-1.002,0.39-1.943,1.099-2.651  c0.708-0.709,1.65-1.099,2.651-1.099s1.943,0.39,2.651,1.097l17.236,17.235C83.177,77.872,83.177,80.251,81.714,81.714z"
     id="path11" /><path
     fill="#000000"
     d="M38.75,24.688c1.23,0,2.45,0.157,3.622,0.471c0.08,0.021,0.163,0.031,0.241,0.031  c0.416,0,0.795-0.276,0.907-0.696c0.132-0.501-0.165-1.015-0.665-1.147c-1.332-0.354-2.712-0.533-4.105-0.533  c-0.518,0-0.938,0.419-0.938,0.938S38.232,24.688,38.75,24.688z"
     id="path13" /><path
     fill="#000000"
     d="M52.701,31.034c-1.404-2.53-3.468-4.635-5.971-6.087c-0.445-0.26-1.021-0.111-1.281,0.341  c-0.26,0.448-0.106,1.021,0.34,1.282c2.21,1.281,4.034,3.138,5.271,5.372c0.172,0.31,0.491,0.483,0.82,0.483  c0.154,0,0.312-0.039,0.454-0.117C52.789,32.058,52.952,31.486,52.701,31.034z"
     id="path15" /><polygon
     fill="#000000"
     points="72.701,15.422 63.158,15.386 63.15,18.114 67.809,18.131 63.132,22.107 63.125,24.928   72.667,24.964 72.676,22.235 67.906,22.218 72.69,18.148 "
     id="polygon17" /><polygon
     fill="#000000"
     points="82.216,13.04 75.083,13.011 75.078,15.051 78.561,15.062 75.067,18.035 75.058,20.141 82.19,20.168   82.197,18.131 78.632,18.116 82.205,15.076 "
     id="polygon19" /><polygon
     fill="#000000"
     points="84.616,11.985 86.936,11.993 84.605,13.974 84.602,15.38 89.356,15.396 89.36,14.038 86.983,14.029   89.366,12 89.371,10.646 84.62,10.625 "
     id="polygon21" /></svg>