<svg xmlns="http://www.w3.org/2000/svg" xmlns:xlink="http://www.w3.org/1999/xlink" version="1.1" id="Layer_1" x="0px" y="0px" width="100px" height="100px" viewBox="0 0 100 100" enable-background="new 0 0 100 100" xml:space="preserve">
<path fill="#000000" d="M68.047,37.04c-0.066,0-0.13,0.011-0.194,0.011c-0.71-10.388-9.468-18.693-19.984-18.693  c-11.058,0-20.054,8.996-20.054,20.054c0,2.509,0.472,4.926,1.362,7.22c-0.493-0.057-0.989-0.095-1.487-0.095  c-6.958,0-12.62,5.661-12.62,12.619s5.662,12.62,12.62,12.62h41.418v-0.053c8.807-0.553,15.806-7.872,15.806-16.815  C84.915,44.605,77.349,37.04,68.047,37.04z M68.047,68.9H27.69c-5.925,0-10.745-4.819-10.745-10.745  c0-5.925,4.819-10.744,10.745-10.744c0.943,0,1.879,0.123,2.785,0.362c0.075,0.022,0.148,0.015,0.223,0.017  c0.005,0,0.009,0.003,0.015,0.003c0.004,0,0.007-0.001,0.011-0.001c0.375-0.002,0.707-0.229,0.848-0.586  c0.009-0.021,0.024-0.039,0.029-0.059c0.005-0.015,0.017-0.026,0.02-0.041c0.017-0.062,0.007-0.121,0.011-0.183  c0.003-0.051,0.013-0.099,0.009-0.152c-0.007-0.064-0.029-0.123-0.049-0.183c-0.015-0.05-0.015-0.099-0.039-0.146  c-1.236-2.509-1.864-5.211-1.864-8.031c0-10.023,8.156-18.179,18.179-18.179c9.531,0,17.468,7.526,18.115,16.941  c-1.811,0.22-3.562,0.722-5.224,1.518c-0.467,0.225-0.665,0.784-0.441,1.25c0.225,0.469,0.79,0.661,1.25,0.441  c2.033-0.974,4.212-1.468,6.479-1.468c8.267,0,14.993,6.725,14.993,14.992C83.04,62.175,76.314,68.9,68.047,68.9z"/>
<path fill="#000000" d="M55.625,54.688c-0.518,0-0.938,0.419-0.938,0.938c0,2.585-2.102,4.688-4.688,4.688s-4.688-2.102-4.688-4.688  c0-0.518-0.419-0.938-0.938-0.938s-0.938,0.419-0.938,0.938c0,3.618,2.944,6.562,6.562,6.562s6.562-2.944,6.562-6.562  C56.562,55.107,56.143,54.688,55.625,54.688z"/>
<path fill="#000000" d="M42.5,49.062h-3.75c-0.518,0-0.938,0.419-0.938,0.938s0.419,0.938,0.938,0.938h3.75  c0.518,0,0.938-0.419,0.938-0.938S43.018,49.062,42.5,49.062z"/>
<path fill="#000000" d="M61.25,49.062H57.5c-0.518,0-0.938,0.419-0.938,0.938s0.419,0.938,0.938,0.938h3.75  c0.518,0,0.938-0.419,0.938-0.938S61.768,49.062,61.25,49.062z"/>
<polygon fill="#000000" points="82.076,21.047 72.533,21.011 72.525,23.739 77.184,23.755 72.507,27.732 72.5,30.552 82.042,30.589   82.051,27.861 77.281,27.842 82.065,23.774 "/>
<polygon fill="#000000" points="84.453,20.676 87.936,20.687 84.442,23.66 84.433,25.766 91.565,25.793 91.572,23.755   88.007,23.741 91.58,20.701 91.591,18.665 84.458,18.636 "/>
</svg>