<svg xmlns="http://www.w3.org/2000/svg" xmlns:xlink="http://www.w3.org/1999/xlink" version="1.1" id="Layer_1" x="0px" y="0px" width="100px" height="100px" viewBox="0 0 100 100" enable-background="new 0 0 100 100" xml:space="preserve">
<path fill="#000000" d="M68.279,37.04c-0.065,0-0.13,0.011-0.195,0.011c-0.709-10.388-9.467-18.693-19.982-18.693  c-11.059,0-20.054,8.996-20.054,20.054c0,2.509,0.472,4.926,1.362,7.22c-0.493-0.057-0.989-0.095-1.487-0.095  c-6.958,0-12.619,5.661-12.619,12.619s5.661,12.62,12.619,12.62h41.419v-0.053c8.805-0.553,15.806-7.872,15.806-16.815  C85.147,44.605,77.581,37.04,68.279,37.04z M68.279,68.9H27.923c-5.925,0-10.744-4.819-10.744-10.745  c0-5.925,4.819-10.744,10.744-10.744c0.943,0,1.879,0.123,2.785,0.362c0.075,0.022,0.148,0.015,0.224,0.017  c0.004,0,0.009,0.003,0.015,0.003c0.003,0,0.007-0.001,0.011-0.001c0.377,0,0.707-0.229,0.85-0.586  c0.008-0.022,0.021-0.039,0.027-0.059c0.006-0.015,0.017-0.026,0.021-0.041c0.017-0.062,0.007-0.121,0.011-0.183  c0.004-0.051,0.013-0.099,0.009-0.152c-0.007-0.064-0.029-0.123-0.049-0.183c-0.015-0.05-0.015-0.099-0.039-0.146  c-1.235-2.509-1.863-5.211-1.863-8.031c0-10.023,8.155-18.179,18.179-18.179c9.53,0,17.468,7.526,18.114,16.941  c-1.811,0.22-3.562,0.722-5.224,1.518c-0.467,0.225-0.665,0.784-0.441,1.25c0.225,0.469,0.791,0.661,1.25,0.441  c2.033-0.974,4.212-1.468,6.479-1.468c8.268,0,14.993,6.725,14.993,14.992C83.272,62.175,76.547,68.9,68.279,68.9z"/>
<ellipse fill="#000000" cx="40.849" cy="49.062" rx="1.875" ry="2.812"/>
<ellipse fill="#000000" cx="59.599" cy="49.062" rx="1.875" ry="2.812"/>
<circle fill="#000000" cx="50.256" cy="57.5" r="3.75"/>
</svg>