<?xml version="1.0" encoding="UTF-8" standalone="no"?>
<svg
   xmlns:dc="http://purl.org/dc/elements/1.1/"
   xmlns:cc="http://creativecommons.org/ns#"
   xmlns:rdf="http://www.w3.org/1999/02/22-rdf-syntax-ns#"
   xmlns:svg="http://www.w3.org/2000/svg"
   xmlns="http://www.w3.org/2000/svg"
   xmlns:sodipodi="http://sodipodi.sourceforge.net/DTD/sodipodi-0.dtd"
   xmlns:inkscape="http://www.inkscape.org/namespaces/inkscape"
   version="1.1"
   id="Layer_1"
   x="0px"
   y="0px"
   width="100px"
   height="100px"
   viewBox="0 0 100 100"
   enable-background="new 0 0 100 100"
   xml:space="preserve"
   inkscape:version="0.48.4 r9939"
   sodipodi:docname="empty_playlist.svg"><metadata
     id="metadata23"><rdf:RDF><cc:Work
         rdf:about=""><dc:format>image/svg+xml</dc:format><dc:type
           rdf:resource="http://purl.org/dc/dcmitype/StillImage" /><dc:title></dc:title></cc:Work></rdf:RDF></metadata><defs
     id="defs21" /><sodipodi:namedview
     pagecolor="#ffffff"
     bordercolor="#666666"
     borderopacity="1"
     objecttolerance="10"
     gridtolerance="10"
     guidetolerance="10"
     inkscape:pageopacity="0"
     inkscape:pageshadow="2"
     inkscape:window-width="640"
     inkscape:window-height="480"
     id="namedview19"
     showgrid="false"
     inkscape:zoom="2.36"
     inkscape:cx="50"
     inkscape:cy="50"
     inkscape:window-x="0"
     inkscape:window-y="27"
     inkscape:window-maximized="0"
     inkscape:current-layer="Layer_1" /><path
     fill="#000000"
     d="M50,11.562c-14.991,0-27.188,11.984-27.188,26.717c0,11.316,12.761,30.394,23.676,34.06l-0.899,0.901  c-0.088,0.088-0.157,0.19-0.205,0.308c-0.046,0.114-0.071,0.234-0.071,0.357c0,0.094,0.04,1.838,2.436,2.531  c-2.289,2.067-5.809,5.945-4.212,9.139c1.198,2.393,4.948,2.393,8.256,2.393c1.78,0,4.217,0,4.722,0.564  c0.028,0.031,0.073,0.083,0.053,0.273c-0.055,0.515,0.317,0.978,0.832,1.033c0.035,0.003,0.067,0.005,0.103,0.005  c0.472,0,0.879-0.355,0.93-0.837c0.073-0.668-0.108-1.265-0.522-1.727c-1.065-1.187-3.406-1.187-6.118-1.187  c-2.629,0-5.901,0-6.579-1.356c-1.196-2.39,3.197-6.524,5.121-8.031c4.29-0.132,4.353-2.688,4.353-2.8  c0-0.121-0.024-0.242-0.071-0.357c-0.055-0.135-0.143-0.252-0.249-0.352l-0.855-0.857c10.915-3.666,23.676-22.744,23.676-34.06  C77.188,23.547,64.991,11.562,50,11.562z M52.661,74.141c-0.293,0.33-1.053,0.701-2.661,0.701s-2.366-0.372-2.661-0.701l1.286-1.285  c0.463,0.065,0.925,0.111,1.375,0.111s0.912-0.046,1.375-0.111L52.661,74.141z M50,71.092c-8.939,0-25.312-19.29-25.312-32.812  c0-13.698,11.354-24.842,25.312-24.842s25.312,11.144,25.312,24.842C75.312,51.802,58.939,71.092,50,71.092z"
     id="path3" /><path
     fill="#000000"
     d="M55.625,50.938c-0.518,0-0.938,0.419-0.938,0.938c0,2.585-2.102,4.688-4.688,4.688s-4.688-2.102-4.688-4.688  c0-0.518-0.419-0.938-0.938-0.938s-0.938,0.419-0.938,0.938c0,3.618,2.944,6.562,6.562,6.562s6.562-2.944,6.562-6.562  C56.562,51.357,56.143,50.938,55.625,50.938z"
     id="path5" /><path
     fill="#000000"
     d="M42.5,45.312h-3.75c-0.518,0-0.938,0.419-0.938,0.938s0.419,0.938,0.938,0.938h3.75  c0.518,0,0.938-0.419,0.938-0.938S43.018,45.312,42.5,45.312z"
     id="path7" /><path
     fill="#000000"
     d="M61.25,45.312H57.5c-0.518,0-0.938,0.419-0.938,0.938s0.419,0.938,0.938,0.938h3.75  c0.518,0,0.938-0.419,0.938-0.938S61.768,45.312,61.25,45.312z"
     id="path9" /><polygon
     fill="#000000"
     points="74.023,19.302 83.565,19.339 83.574,16.611 78.804,16.592 83.589,12.524 83.6,9.797 74.057,9.761   74.049,12.489 78.707,12.505 74.031,16.482 "
     id="polygon11" /><polygon
     fill="#000000"
     points="85.977,9.426 89.459,9.437 85.966,12.41 85.957,14.516 93.088,14.543 93.096,12.505 89.531,12.491   93.103,9.451 93.114,7.415 85.982,7.386 "
     id="polygon13" /><path
     fill="#000000"
     d="M51.461,17.235c-0.47-0.026-0.963,0.355-0.998,0.873c-0.035,0.517,0.357,0.963,0.874,0.998  c5.27,0.352,10.082,2.75,13.55,6.753c0.185,0.214,0.446,0.324,0.708,0.324c0.218,0,0.436-0.075,0.613-0.229  c0.392-0.339,0.434-0.932,0.095-1.322C62.504,20.249,57.234,17.622,51.461,17.235z"
     id="path15" /><path
     fill="#000000"
     d="M67.677,30.069c0.517,1.051,0.943,2.157,1.266,3.291c0.117,0.412,0.492,0.681,0.901,0.681  c0.084,0,0.17-0.011,0.256-0.037c0.498-0.141,0.787-0.659,0.645-1.157c-0.352-1.241-0.818-2.456-1.386-3.605  c-0.227-0.465-0.788-0.657-1.254-0.427C67.639,29.043,67.448,29.605,67.677,30.069z"
     id="path17" /></svg>